<mxfile host="app.diagrams.net" modified="2024-07-22T06:08:39.543Z" agent="Mozilla/5.0 (Windows NT 10.0; Win64; x64) AppleWebKit/537.36 (KHTML, like Gecko) Chrome/126.0.0.0 Safari/537.36" etag="R6rawMqjMUQAyum9ksDG" version="24.7.1" type="device">
  <diagram name="Страница — 1" id="ugKFan7qcT93saulOgsV">
    <mxGraphModel dx="1290" dy="589" grid="1" gridSize="10" guides="1" tooltips="1" connect="1" arrows="1" fold="1" page="1" pageScale="1" pageWidth="1169" pageHeight="827" math="0" shadow="0">
      <root>
        <mxCell id="0" />
        <mxCell id="1" parent="0" />
        <mxCell id="hdgAiopkdbzbPdRYUJ7d-3" value="" style="rounded=1;whiteSpace=wrap;html=1;" parent="1" vertex="1">
          <mxGeometry x="310" y="160" width="730" height="280" as="geometry" />
        </mxCell>
        <mxCell id="hdgAiopkdbzbPdRYUJ7d-8" style="edgeStyle=orthogonalEdgeStyle;rounded=0;orthogonalLoop=1;jettySize=auto;html=1;" parent="1" target="hdgAiopkdbzbPdRYUJ7d-5" edge="1">
          <mxGeometry relative="1" as="geometry">
            <mxPoint x="200" y="300" as="sourcePoint" />
          </mxGeometry>
        </mxCell>
        <mxCell id="hdgAiopkdbzbPdRYUJ7d-13" value="SuppressValue(val)" style="edgeLabel;html=1;align=center;verticalAlign=middle;resizable=0;points=[];fontSize=12;" parent="hdgAiopkdbzbPdRYUJ7d-8" vertex="1" connectable="0">
          <mxGeometry x="0.5818" y="-4" relative="1" as="geometry">
            <mxPoint x="-19" y="-14" as="offset" />
          </mxGeometry>
        </mxCell>
        <mxCell id="hdgAiopkdbzbPdRYUJ7d-39" style="edgeStyle=orthogonalEdgeStyle;rounded=0;orthogonalLoop=1;jettySize=auto;html=1;entryX=0;entryY=0.5;entryDx=0;entryDy=0;" parent="1" source="hdgAiopkdbzbPdRYUJ7d-2" target="hdgAiopkdbzbPdRYUJ7d-3" edge="1">
          <mxGeometry relative="1" as="geometry" />
        </mxCell>
        <mxCell id="hdgAiopkdbzbPdRYUJ7d-40" value="channel.Value = x" style="edgeLabel;html=1;align=center;verticalAlign=middle;resizable=0;points=[];fontSize=12;" parent="hdgAiopkdbzbPdRYUJ7d-39" vertex="1" connectable="0">
          <mxGeometry x="-0.392" y="1" relative="1" as="geometry">
            <mxPoint x="27" y="-9" as="offset" />
          </mxGeometry>
        </mxCell>
        <mxCell id="hdgAiopkdbzbPdRYUJ7d-2" value="Sensor" style="rounded=1;whiteSpace=wrap;html=1;fontSize=14;" parent="1" vertex="1">
          <mxGeometry x="20" y="265" width="150" height="70" as="geometry" />
        </mxCell>
        <mxCell id="hdgAiopkdbzbPdRYUJ7d-11" style="edgeStyle=orthogonalEdgeStyle;rounded=0;orthogonalLoop=1;jettySize=auto;html=1;" parent="1" source="hdgAiopkdbzbPdRYUJ7d-4" target="hdgAiopkdbzbPdRYUJ7d-10" edge="1">
          <mxGeometry relative="1" as="geometry">
            <Array as="points">
              <mxPoint x="810" y="240" />
              <mxPoint x="810" y="300" />
            </Array>
          </mxGeometry>
        </mxCell>
        <mxCell id="hdgAiopkdbzbPdRYUJ7d-4" value="Линейное преобразование" style="ellipse;whiteSpace=wrap;html=1;aspect=fixed;fontSize=12;" parent="1" vertex="1">
          <mxGeometry x="683" y="190" width="100" height="100" as="geometry" />
        </mxCell>
        <mxCell id="hdgAiopkdbzbPdRYUJ7d-9" style="edgeStyle=orthogonalEdgeStyle;rounded=0;orthogonalLoop=1;jettySize=auto;html=1;entryX=0;entryY=0.5;entryDx=0;entryDy=0;" parent="1" source="hdgAiopkdbzbPdRYUJ7d-5" target="hdgAiopkdbzbPdRYUJ7d-4" edge="1">
          <mxGeometry relative="1" as="geometry">
            <Array as="points">
              <mxPoint x="650" y="300" />
              <mxPoint x="650" y="240" />
            </Array>
          </mxGeometry>
        </mxCell>
        <mxCell id="hdgAiopkdbzbPdRYUJ7d-14" style="edgeStyle=orthogonalEdgeStyle;rounded=0;orthogonalLoop=1;jettySize=auto;html=1;entryX=0;entryY=0.5;entryDx=0;entryDy=0;dashed=1;" parent="1" source="hdgAiopkdbzbPdRYUJ7d-5" target="hdgAiopkdbzbPdRYUJ7d-12" edge="1">
          <mxGeometry relative="1" as="geometry">
            <Array as="points">
              <mxPoint x="650" y="300" />
              <mxPoint x="650" y="360" />
            </Array>
          </mxGeometry>
        </mxCell>
        <mxCell id="hdgAiopkdbzbPdRYUJ7d-17" value="TransformValue" style="edgeLabel;html=1;align=center;verticalAlign=middle;resizable=0;points=[];fontSize=12;" parent="hdgAiopkdbzbPdRYUJ7d-14" vertex="1" connectable="0">
          <mxGeometry x="-0.7579" y="1" relative="1" as="geometry">
            <mxPoint x="21" y="-9" as="offset" />
          </mxGeometry>
        </mxCell>
        <mxCell id="hdgAiopkdbzbPdRYUJ7d-5" value="Супрессия" style="ellipse;whiteSpace=wrap;html=1;aspect=fixed;fontSize=12;" parent="1" vertex="1">
          <mxGeometry x="440" y="250" width="100" height="100" as="geometry" />
        </mxCell>
        <mxCell id="hdgAiopkdbzbPdRYUJ7d-6" value="&lt;br style=&quot;font-size: 16px;&quot;&gt;&lt;span style=&quot;color: rgb(0, 0, 0); font-family: Helvetica; font-size: 16px; font-style: normal; font-variant-ligatures: normal; font-variant-caps: normal; letter-spacing: normal; orphans: 2; text-indent: 0px; text-transform: none; widows: 2; word-spacing: 0px; -webkit-text-stroke-width: 0px; white-space: normal; background-color: rgb(251, 251, 251); text-decoration-thickness: initial; text-decoration-style: initial; text-decoration-color: initial; float: none; display: inline !important;&quot;&gt;ChannelSensor&lt;br style=&quot;font-size: 16px;&quot;&gt;&lt;/span&gt;set Value" style="text;html=1;align=left;verticalAlign=middle;whiteSpace=wrap;rounded=0;fontStyle=1;fontSize=16;" parent="1" vertex="1">
          <mxGeometry x="325" y="170" width="175" height="70" as="geometry" />
        </mxCell>
        <mxCell id="hdgAiopkdbzbPdRYUJ7d-10" value="Добавление&lt;br style=&quot;font-size: 12px;&quot;&gt;в буфер" style="ellipse;whiteSpace=wrap;html=1;aspect=fixed;fontSize=12;" parent="1" vertex="1">
          <mxGeometry x="930" y="250" width="100" height="100" as="geometry" />
        </mxCell>
        <mxCell id="hdgAiopkdbzbPdRYUJ7d-12" value="Вызов пользовательской функции&amp;nbsp;" style="ellipse;whiteSpace=wrap;html=1;aspect=fixed;fontSize=12;" parent="1" vertex="1">
          <mxGeometry x="683" y="310" width="100" height="100" as="geometry" />
        </mxCell>
        <mxCell id="hdgAiopkdbzbPdRYUJ7d-18" value="" style="rounded=1;whiteSpace=wrap;html=1;" parent="1" vertex="1">
          <mxGeometry x="310" y="467" width="430" height="260" as="geometry" />
        </mxCell>
        <mxCell id="hdgAiopkdbzbPdRYUJ7d-19" value="&lt;br style=&quot;font-size: 14px;&quot;&gt;&lt;span style=&quot;color: rgb(0, 0, 0); font-family: Helvetica; font-size: 14px; font-style: normal; font-variant-ligatures: normal; font-variant-caps: normal; letter-spacing: normal; orphans: 2; text-indent: 0px; text-transform: none; widows: 2; word-spacing: 0px; -webkit-text-stroke-width: 0px; white-space: normal; background-color: rgb(251, 251, 251); text-decoration-thickness: initial; text-decoration-style: initial; text-decoration-color: initial; float: none; display: inline !important;&quot;&gt;ChannelSensor&lt;br style=&quot;font-size: 14px;&quot;&gt;&lt;/span&gt;get Value" style="text;html=1;align=left;verticalAlign=middle;whiteSpace=wrap;rounded=0;fontStyle=1;fontSize=14;" parent="1" vertex="1">
          <mxGeometry x="340" y="467" width="145" height="50" as="geometry" />
        </mxCell>
        <mxCell id="hdgAiopkdbzbPdRYUJ7d-20" value="x&lt;sub&gt;0&lt;/sub&gt;" style="edgeLabel;html=1;align=center;verticalAlign=middle;resizable=0;points=[];fontSize=12;" parent="1" vertex="1" connectable="0">
          <mxGeometry x="360.00068965517255" y="309.97" as="geometry">
            <mxPoint x="8" as="offset" />
          </mxGeometry>
        </mxCell>
        <mxCell id="hdgAiopkdbzbPdRYUJ7d-21" value="x&lt;sub style=&quot;font-size: 12px;&quot;&gt;1&lt;/sub&gt;" style="edgeLabel;html=1;align=center;verticalAlign=middle;resizable=0;points=[];fontSize=12;" parent="1" vertex="1" connectable="0">
          <mxGeometry x="589.0028571428571" y="310" as="geometry" />
        </mxCell>
        <mxCell id="hdgAiopkdbzbPdRYUJ7d-26" style="edgeStyle=orthogonalEdgeStyle;rounded=0;orthogonalLoop=1;jettySize=auto;html=1;" parent="1" source="hdgAiopkdbzbPdRYUJ7d-24" target="hdgAiopkdbzbPdRYUJ7d-25" edge="1">
          <mxGeometry relative="1" as="geometry" />
        </mxCell>
        <mxCell id="hdgAiopkdbzbPdRYUJ7d-37" value="_FilterFunc(arr)" style="edgeLabel;html=1;align=center;verticalAlign=middle;resizable=0;points=[];fontSize=12;" parent="hdgAiopkdbzbPdRYUJ7d-26" vertex="1" connectable="0">
          <mxGeometry x="-0.3846" relative="1" as="geometry">
            <mxPoint x="13" y="-10" as="offset" />
          </mxGeometry>
        </mxCell>
        <mxCell id="hdgAiopkdbzbPdRYUJ7d-24" value="Буфер" style="rounded=0;whiteSpace=wrap;html=1;" parent="1" vertex="1">
          <mxGeometry x="340" y="525" width="120" height="60" as="geometry" />
        </mxCell>
        <mxCell id="hdgAiopkdbzbPdRYUJ7d-30" style="rounded=0;orthogonalLoop=1;jettySize=auto;html=1;" parent="1" source="hdgAiopkdbzbPdRYUJ7d-25" target="hdgAiopkdbzbPdRYUJ7d-27" edge="1">
          <mxGeometry relative="1" as="geometry" />
        </mxCell>
        <mxCell id="hdgAiopkdbzbPdRYUJ7d-49" style="rounded=0;orthogonalLoop=1;jettySize=auto;html=1;entryX=0;entryY=0.5;entryDx=0;entryDy=0;" parent="1" source="hdgAiopkdbzbPdRYUJ7d-25" target="hdgAiopkdbzbPdRYUJ7d-48" edge="1">
          <mxGeometry relative="1" as="geometry" />
        </mxCell>
        <mxCell id="hdgAiopkdbzbPdRYUJ7d-25" value="Фильтр" style="ellipse;whiteSpace=wrap;html=1;aspect=fixed;fontSize=12;" parent="1" vertex="1">
          <mxGeometry x="555" y="505" width="100" height="100" as="geometry" />
        </mxCell>
        <mxCell id="hdgAiopkdbzbPdRYUJ7d-27" value="Пользователь" style="shape=umlActor;verticalLabelPosition=bottom;verticalAlign=top;html=1;outlineConnect=0;" parent="1" vertex="1">
          <mxGeometry x="890" y="467" width="50" height="85" as="geometry" />
        </mxCell>
        <mxCell id="hdgAiopkdbzbPdRYUJ7d-16" style="edgeStyle=orthogonalEdgeStyle;rounded=0;orthogonalLoop=1;jettySize=auto;html=1;dashed=1;" parent="1" source="hdgAiopkdbzbPdRYUJ7d-12" target="hdgAiopkdbzbPdRYUJ7d-10" edge="1">
          <mxGeometry relative="1" as="geometry">
            <Array as="points">
              <mxPoint x="810" y="360" />
              <mxPoint x="810" y="300" />
            </Array>
          </mxGeometry>
        </mxCell>
        <mxCell id="hdgAiopkdbzbPdRYUJ7d-33" value="x&lt;sub style=&quot;font-size: 12px;&quot;&gt;2&lt;/sub&gt;" style="edgeLabel;html=1;align=center;verticalAlign=middle;resizable=0;points=[];fontSize=12;" parent="hdgAiopkdbzbPdRYUJ7d-16" vertex="1" connectable="0">
          <mxGeometry x="0.6298" relative="1" as="geometry">
            <mxPoint x="-22" y="10" as="offset" />
          </mxGeometry>
        </mxCell>
        <mxCell id="hdgAiopkdbzbPdRYUJ7d-38" value="_BufferValue.push(val)" style="edgeLabel;html=1;align=center;verticalAlign=middle;resizable=0;points=[];" parent="hdgAiopkdbzbPdRYUJ7d-16" vertex="1" connectable="0">
          <mxGeometry x="0.4487" y="1" relative="1" as="geometry">
            <mxPoint y="-9" as="offset" />
          </mxGeometry>
        </mxCell>
        <mxCell id="hdgAiopkdbzbPdRYUJ7d-41" value="Сырое значение x&lt;sub&gt;0&lt;/sub&gt;" style="edgeLabel;html=1;align=center;verticalAlign=middle;resizable=0;points=[];fontSize=12;" parent="1" vertex="1" connectable="0">
          <mxGeometry x="230.00068965517255" y="309.97" as="geometry">
            <mxPoint x="8" as="offset" />
          </mxGeometry>
        </mxCell>
        <mxCell id="hdgAiopkdbzbPdRYUJ7d-42" value="" style="rounded=1;whiteSpace=wrap;html=1;fontSize=14;" parent="1" vertex="1">
          <mxGeometry x="510" y="627" width="160" height="91" as="geometry" />
        </mxCell>
        <mxCell id="hdgAiopkdbzbPdRYUJ7d-48" value="DevicesManager" style="rounded=1;whiteSpace=wrap;html=1;fontSize=14;" parent="1" vertex="1">
          <mxGeometry x="850" y="617" width="150" height="70" as="geometry" />
        </mxCell>
        <mxCell id="hdgAiopkdbzbPdRYUJ7d-51" value="&lt;span style=&quot;text-align: center;&quot;&gt;&lt;font style=&quot;font-size: 16px;&quot;&gt;Alarms&lt;/font&gt;&lt;/span&gt;" style="text;html=1;align=left;verticalAlign=middle;whiteSpace=wrap;rounded=0;fontStyle=1;fontSize=14;" parent="1" vertex="1">
          <mxGeometry x="510" y="637" width="60" height="30" as="geometry" />
        </mxCell>
        <mxCell id="hdgAiopkdbzbPdRYUJ7d-52" value="Проверка зон" style="ellipse;whiteSpace=wrap;html=1;aspect=fixed;fontSize=12;" parent="1" vertex="1">
          <mxGeometry x="579" y="646.25" width="64.5" height="64.5" as="geometry" />
        </mxCell>
        <mxCell id="hdgAiopkdbzbPdRYUJ7d-47" style="rounded=0;orthogonalLoop=1;jettySize=auto;html=1;entryX=0.415;entryY=0.006;entryDx=0;entryDy=0;entryPerimeter=0;" parent="1" source="hdgAiopkdbzbPdRYUJ7d-25" target="hdgAiopkdbzbPdRYUJ7d-52" edge="1">
          <mxGeometry relative="1" as="geometry" />
        </mxCell>
        <mxCell id="hdgAiopkdbzbPdRYUJ7d-54" value="CheckZone(val)" style="edgeLabel;html=1;align=center;verticalAlign=middle;resizable=0;points=[];fontSize=12;" parent="hdgAiopkdbzbPdRYUJ7d-47" vertex="1" connectable="0">
          <mxGeometry x="0.3248" y="1" relative="1" as="geometry">
            <mxPoint x="37" y="-15" as="offset" />
          </mxGeometry>
        </mxCell>
        <mxCell id="hdgAiopkdbzbPdRYUJ7d-57" value="&lt;h1 style=&quot;margin-top: 0px;&quot;&gt;Сохранение данных&lt;/h1&gt;&lt;p&gt;.&lt;/p&gt;" style="text;html=1;whiteSpace=wrap;overflow=hidden;rounded=0;" parent="1" vertex="1">
          <mxGeometry x="20" y="160" width="180" height="120" as="geometry" />
        </mxCell>
        <mxCell id="hdgAiopkdbzbPdRYUJ7d-58" value="&lt;h1 style=&quot;margin-top: 0px;&quot;&gt;Считывание данных&lt;/h1&gt;&lt;p&gt;.&lt;/p&gt;" style="text;html=1;whiteSpace=wrap;overflow=hidden;rounded=0;" parent="1" vertex="1">
          <mxGeometry x="20" y="467" width="180" height="120" as="geometry" />
        </mxCell>
      </root>
    </mxGraphModel>
  </diagram>
</mxfile>
